<svg width="80" height="80" viewBox="0 0 80 80" fill="none" xmlns="http://www.w3.org/2000/svg">
<rect width="80" height="80" fill="white"/>
<rect opacity="0.83" x="5" y="5" width="66" height="66" rx="33" fill="#431898"/>
<circle cx="38" cy="38" r="27" fill="white"/>
<rect y="42" width="6" height="18" transform="rotate(-90 0 42)" fill="#431898"/>
<rect x="60" y="42" width="6" height="18" transform="rotate(-90 60 42)" fill="#431898"/>
<path d="M37 0H43V18H37V0Z" fill="#431898"/>
<rect x="37" y="59" width="6" height="18" fill="#431898"/>
<path d="M51 38.5C51 45.4036 45.4036 51 38.5 51C31.5964 51 26 45.4036 26 38.5C26 31.5964 31.5964 26 38.5 26C45.4036 26 51 31.5964 51 38.5Z" fill="#431898"/>
</svg>
