<svg width="69" height="58" viewBox="0 0 69 58" fill="none" xmlns="http://www.w3.org/2000/svg">
<rect x="1" width="56" height="45" rx="8" fill="#3F41A6"/>
<path d="M36.3057 22.0238C36.9062 21.2512 38.0738 21.2512 38.6743 22.0238L49.5987 36.0795C50.3646 37.0649 49.6624 38.5 48.4144 38.5H26.5656C25.3176 38.5 24.6154 37.0649 25.3813 36.0795L36.3057 22.0238Z" fill="white"/>
<path d="M16.2837 25.1854C16.8824 24.3558 18.1176 24.3558 18.7163 25.1854L26.6093 36.1222C27.3252 37.1142 26.6164 38.5 25.393 38.5H9.60705C8.38363 38.5 7.67477 37.1142 8.39072 36.1222L16.2837 25.1854Z" fill="white"/>
<rect x="61" y="13" width="6" height="44" rx="3" fill="#3F41A6"/>
<rect x="12" y="51.5" width="55" height="6" rx="3" fill="#3F41A6"/>
</svg>
